<svg width="41" height="36" viewBox="0 0 41 36" fill="none" xmlns="http://www.w3.org/2000/svg">
<path d="M18.978 35.794C17.6877 35.794 16.5138 35.4312 15.4565 34.7055C14.3992 33.9802 13.684 33.0008 13.311 31.7675C13.1233 31.2785 13.2057 30.8195 13.558 30.3905C13.9107 29.9615 14.3762 29.747 14.9545 29.747C15.3168 29.747 15.6383 29.868 15.919 30.11C16.1997 30.352 16.4273 30.6483 16.602 30.999C16.81 31.45 17.1388 31.7922 17.5885 32.0255C18.0385 32.2588 18.5017 32.3755 18.978 32.3755C19.7193 32.3755 20.3427 32.1225 20.848 31.6165C21.3537 31.1105 21.6065 30.4868 21.6065 29.7455C21.6065 28.9958 21.3537 28.3707 20.848 27.87C20.3427 27.3693 19.7193 27.119 18.978 27.119H1.703C1.22233 27.119 0.818333 26.9543 0.491 26.625C0.163667 26.296 0 25.886 0 25.395C0 24.9117 0.163667 24.5083 0.491 24.185C0.818333 23.862 1.22233 23.7005 1.703 23.7005H18.978C20.6493 23.7005 22.073 24.2885 23.249 25.4645C24.425 26.6405 25.013 28.068 25.013 29.747C25.013 31.426 24.425 32.8535 23.249 34.0295C22.073 35.2058 20.6493 35.794 18.978 35.794ZM1.703 14.2935C1.22233 14.2935 0.818333 14.129 0.491 13.8C0.163667 13.471 0 13.0608 0 12.5695C0 12.0865 0.163667 11.6833 0.491 11.36C0.818333 11.0367 1.22233 10.875 1.703 10.875H27.078C28.1097 10.875 28.989 10.5125 29.716 9.7875C30.443 9.06217 30.8065 8.178 30.8065 7.135C30.8065 6.10033 30.443 5.22034 29.716 4.495C28.989 3.76967 28.1097 3.407 27.078 3.407C26.3433 3.407 25.6693 3.599 25.056 3.983C24.4427 4.367 24.0233 4.893 23.798 5.561C23.6327 5.94367 23.3923 6.27033 23.077 6.541C22.762 6.81167 22.4052 6.947 22.0065 6.947C21.4515 6.947 21.0145 6.74083 20.6955 6.3285C20.3768 5.91617 20.3073 5.4535 20.487 4.9405C20.9093 3.4485 21.7242 2.25217 22.9315 1.3515C24.1388 0.450501 25.521 0 27.078 0C29.066 0 30.7522 0.692332 32.1365 2.077C33.5208 3.46133 34.213 5.15133 34.213 7.147C34.213 9.14267 33.5208 10.8327 32.1365 12.217C30.7522 13.6013 29.066 14.2935 27.078 14.2935H1.703ZM35.263 30.882C34.766 31.0203 34.3193 30.9318 33.923 30.6165C33.5263 30.3012 33.328 29.8703 33.328 29.324C33.328 28.9177 33.4653 28.5568 33.74 28.2415C34.0147 27.9262 34.3433 27.682 34.726 27.509C35.4197 27.2837 35.9482 26.8643 36.3115 26.251C36.6748 25.6373 36.8565 24.9632 36.8565 24.2285C36.8565 23.2445 36.5145 22.4105 35.8305 21.7265C35.1465 21.0425 34.3123 20.7005 33.328 20.7005H1.703C1.22233 20.7005 0.818333 20.5358 0.491 20.2065C0.163667 19.8775 0 19.4713 0 18.988C0 18.505 0.163667 18.1018 0.491 17.7785C0.818333 17.4552 1.22233 17.2935 1.703 17.2935H33.328C35.2467 17.2935 36.8822 17.9697 38.2345 19.322C39.5868 20.6747 40.263 22.3102 40.263 24.2285C40.263 25.8192 39.8087 27.2343 38.9 28.474C37.9913 29.714 36.779 30.5167 35.263 30.882Z" fill="white"/>
</svg>
