<svg width="41" height="41" viewBox="0 0 41 41" fill="none" xmlns="http://www.w3.org/2000/svg">
<path d="M20.3095 40.61C17.5018 40.61 14.8638 40.077 12.3955 39.011C9.9275 37.945 7.77733 36.4972 5.945 34.6675C4.11267 32.8382 2.66383 30.6898 1.5985 28.2225C0.532833 25.7552 0 23.1182 0 20.3115C0 17.5045 0.532833 14.8673 1.5985 12.4C2.66383 9.93267 4.11267 7.78417 5.945 5.9545C7.77733 4.12483 9.928 2.675 12.397 1.605C14.8657 0.534999 17.5042 0 20.3125 0C23.1212 0 25.7578 0.534999 28.2225 1.605C30.6875 2.675 32.8353 4.124 34.666 5.952C36.4967 7.77967 37.945 9.92767 39.011 12.396C40.077 14.864 40.61 17.5018 40.61 20.3095C40.61 23.1172 40.0773 25.755 39.012 28.223C37.947 30.6913 36.4987 32.8407 34.667 34.671C32.835 36.5017 30.686 37.9492 28.22 39.0135C25.7537 40.0778 23.1168 40.61 20.3095 40.61ZM14.297 36.2155L17.351 28.9065C16.0763 28.4732 14.941 27.7755 13.945 26.8135C12.9487 25.8518 12.2015 24.6837 11.7035 23.309L4.3825 26.213C5.41583 28.564 6.7785 30.6022 8.4705 32.3275C10.1628 34.0528 12.105 35.3488 14.297 36.2155ZM11.6535 17.351C12.1708 15.9687 12.9208 14.7922 13.9035 13.8215C14.8862 12.8508 16.0187 12.1448 17.301 11.7035L14.373 4.3945C11.881 5.42783 9.77633 6.8155 8.059 8.5575C6.34133 10.2998 5.11583 12.267 4.3825 14.459L11.6535 17.351ZM20.297 26C21.8823 26 23.2292 25.4487 24.3375 24.346C25.4458 23.243 26 21.8987 26 20.313C26 18.7277 25.4458 17.3808 24.3375 16.2725C23.2292 15.1642 21.8823 14.61 20.297 14.61C18.7113 14.61 17.367 15.1642 16.264 16.2725C15.1613 17.3808 14.61 18.7277 14.61 20.313C14.61 21.8987 15.1613 23.243 16.264 24.346C17.367 25.4487 18.7113 26 20.297 26ZM26.301 36.2155C28.593 35.2902 30.587 33.9712 32.283 32.2585C33.9793 30.5458 35.2902 28.56 36.2155 26.301L28.8945 23.309C28.3945 24.7247 27.6488 25.9095 26.6575 26.8635C25.6662 27.8175 24.5293 28.4985 23.247 28.9065L26.301 36.2155ZM28.8945 17.313L36.2155 14.309C35.2888 12.0473 33.9682 10.0632 32.2535 8.3565C30.5388 6.64983 28.5547 5.32916 26.301 4.3945L23.347 11.7035C24.632 12.1348 25.745 12.8313 26.686 13.793C27.6273 14.7547 28.3635 15.928 28.8945 17.313Z" fill="white"/>
</svg>
