<svg width="41" height="40" viewBox="0 0 41 40" fill="none" xmlns="http://www.w3.org/2000/svg">
<path d="M18.7915 39.5155C16.4275 39.0995 14.115 38.2858 11.854 37.0745C9.59267 35.8635 7.583 34.2503 5.825 32.235C4.067 30.2197 2.65667 27.7982 1.594 24.9705C0.531334 22.1425 0 18.8785 0 15.1785V14.499C0 14.1007 0.151667 13.7458 0.455 13.4345C0.758334 13.1232 1.10917 12.9675 1.5075 12.9675H2.187C3.898 12.9675 5.7395 13.3012 7.7115 13.9685C9.6835 14.6362 11.4243 15.4793 12.934 16.498C13.2163 13.8727 13.9068 11.1537 15.0055 8.341C16.1042 5.52833 17.4242 2.99733 18.9655 0.748001C19.3225 0.249334 19.765 0 20.293 0C20.821 0 21.2635 0.249334 21.6205 0.748001C23.1618 2.99733 24.4838 5.52833 25.5865 8.341C26.6892 11.1537 27.3817 13.8727 27.664 16.498C29.2053 15.53 30.9562 14.6997 32.9165 14.007C34.8765 13.314 36.7398 12.9675 38.5065 12.9675H39.114C39.5047 12.9675 39.8517 13.1172 40.155 13.4165C40.4583 13.7158 40.61 14.0608 40.61 14.4515V15.071C40.61 18.8027 40.0807 22.0865 39.022 24.9225C37.9633 27.7585 36.555 30.186 34.797 32.205C33.039 34.2243 31.0313 35.8397 28.774 37.051C26.5167 38.262 24.2022 39.0795 21.8305 39.5035C21.4238 39.5862 20.9173 39.6275 20.311 39.6275C19.7043 39.6275 19.1978 39.5902 18.7915 39.5155ZM20.5675 36.247C20.1768 30.168 18.3745 25.5543 15.1605 22.406C11.9462 19.258 8.04083 17.276 3.4445 16.46H3.4565C3.90583 22.699 5.77333 27.3963 9.059 30.552C12.3443 33.7073 16.1805 35.6057 20.5675 36.247C20.5928 36.2803 20.5845 36.2887 20.5425 36.272C20.5005 36.2553 20.5088 36.247 20.5675 36.247ZM16.1925 18.5655C16.9352 19.2002 17.6843 19.9977 18.44 20.958C19.1953 21.918 19.8023 22.8115 20.261 23.6385C20.7357 22.7795 21.3553 21.888 22.12 20.964C22.885 20.0397 23.6468 19.2402 24.4055 18.5655C24.5402 16.3718 24.2005 14.1535 23.3865 11.9105C22.5725 9.6675 21.5393 7.3325 20.287 4.9055C20.2537 4.86417 20.2537 4.86217 20.287 4.8995C20.3203 4.93683 20.3203 4.93883 20.287 4.9055C19.0173 7.32583 17.9838 9.64883 17.1865 11.8745C16.3892 14.1005 16.0578 16.3308 16.1925 18.5655ZM22.188 27.137C22.588 28.4037 22.944 29.6728 23.256 30.9445C23.568 32.2158 23.8073 33.6682 23.974 35.3015C25.485 34.7428 26.9852 33.9905 28.4745 33.0445C29.9642 32.0982 31.314 30.8723 32.524 29.367C33.734 27.8617 34.7542 26.0495 35.5845 23.9305C36.4145 21.8118 36.9295 19.3217 37.1295 16.46C37.1375 16.4093 37.1395 16.4133 37.1355 16.472C37.1315 16.5307 37.1295 16.5267 37.1295 16.46C33.6998 17.0347 30.6728 18.2612 28.0485 20.1395C25.4242 22.0178 23.4707 24.3503 22.188 27.137Z" fill="white"/>
</svg>
