<svg width="37" height="41" viewBox="0 0 37 41" fill="none" xmlns="http://www.w3.org/2000/svg">
<path d="M11.0615 37.835H25.5361V25.1934H11.0615V37.835ZM18.2471 15.4893L3.9502 21.8008L3.93652 21.8066L3.92383 21.8135C3.59276 21.9839 3.31702 22.2233 3.10352 22.5273C2.88253 22.842 2.7627 23.195 2.7627 23.5752C2.76275 24.0915 2.96749 24.5385 3.34961 24.8887C3.72679 25.2343 4.18551 25.4092 4.69922 25.4092H8.79883V23.8594C8.79883 23.5684 8.88945 23.3583 9.05859 23.1904L9.05957 23.1895C9.22885 23.0216 9.44237 22.9307 9.73926 22.9307H26.8701C27.1676 22.9307 27.3816 23.0216 27.5508 23.1895V23.1904C27.7201 23.3584 27.8105 23.5682 27.8105 23.8594V25.4092H31.8945C32.3835 25.4092 32.8276 25.2448 33.2119 24.9336C33.6234 24.6004 33.8467 24.1534 33.8467 23.625C33.8467 23.227 33.7383 22.8573 33.5146 22.5332C33.3006 22.2231 33.0146 21.9831 32.6699 21.8115L32.6611 21.8066L32.6523 21.8027L18.6543 15.4912L18.4512 15.3994L18.2471 15.4893ZM17.2217 10.8086L16.8506 10.71C15.7254 10.4107 14.8185 9.8 14.1143 8.86816C13.4085 7.935 13.0577 6.8898 13.0576 5.71582C13.0576 4.25634 13.5712 3.03425 14.6084 2.02051C15.6487 1.00352 16.8848 0.5 18.3438 0.5C19.3192 0.500039 20.1927 0.729896 20.9746 1.1875L21.3037 1.39746C22.1795 2.0029 22.8205 2.78112 23.2354 3.73828L23.2363 3.74121C23.363 4.0295 23.3691 4.30403 23.2559 4.59473C23.1415 4.88762 22.9508 5.08789 22.6641 5.2168H22.6631C22.391 5.33901 22.1171 5.34454 21.8057 5.21289C21.5235 5.09357 21.3277 4.91969 21.1973 4.6875L21.1455 4.58496C20.9054 4.0469 20.5313 3.61139 20.0342 3.28418C19.5303 2.95216 18.9646 2.78712 18.3506 2.78711C17.5398 2.78711 16.8238 3.0714 16.2266 3.62695C15.6211 4.19027 15.3087 4.89786 15.3086 5.71973C15.3086 6.53943 15.5747 7.25666 16.1074 7.84277L16.2178 7.95801C16.823 8.56327 17.5758 8.86719 18.4434 8.86719C18.7568 8.86727 19.0177 8.97132 19.25 9.19238C19.4774 9.40876 19.5801 9.65226 19.5801 9.94922V13.4736L19.8809 13.6045L33.5938 19.5908V19.5918C34.3858 19.94 34.9963 20.48 35.4375 21.2207C35.8863 21.9741 36.1103 22.7853 36.1104 23.6631C36.1104 24.8002 35.7008 25.7431 34.8672 26.5215H34.8662C34.0242 27.308 33.0427 27.6962 31.8975 27.6963H27.8105V38.9062C27.8105 39.2275 27.7221 39.4789 27.5508 39.6855L27.4727 39.7715C27.2505 39.9938 26.9744 40.1104 26.6074 40.1104H10.0029C9.68169 40.1104 9.43025 40.0209 9.22363 39.8496L9.1377 39.7715C8.91534 39.5494 8.79883 39.2733 8.79883 38.9062V27.6963H4.70117C3.55932 27.6963 2.58012 27.3088 1.74023 26.5225V26.5215C0.90934 25.744 0.500043 24.8007 0.5 23.6592C0.5 22.7809 0.720961 21.9695 1.16504 21.2168C1.60009 20.4794 2.21153 19.9398 3.01367 19.5918L16.918 13.6533L17.2217 13.5234V10.8086Z" fill="white" stroke="white"/>
</svg>
